<?xml version="1.0" standalone="no"?><!DOCTYPE svg PUBLIC "-//W3C//DTD SVG 1.1//EN" "http://www.w3.org/Graphics/SVG/1.1/DTD/svg11.dtd"><svg t="1660966082504" class="icon" viewBox="0 0 1024 1024" version="1.1" xmlns="http://www.w3.org/2000/svg" p-id="1916" xmlns:xlink="http://www.w3.org/1999/xlink" width="200" height="200"><defs><style type="text/css">@font-face { font-family: element-icons; src: url("chrome-extension://moombeodfomdpjnpocobemoiaemednkg/fonts/element-icons.woff") format("woff"), url("chrome-extension://moombeodfomdpjnpocobemoiaemednkg/fonts/element-icons.ttf ") format("truetype"); }
</style></defs><path d="M682.666667 69.333333a122.666667 122.666667 0 0 1 122.581333 117.973334l0.085333 4.693333v218.666667H832a122.666667 122.666667 0 0 1 122.581333 117.973333l0.085334 4.693333v298.666667a122.666667 122.666667 0 0 1-117.973334 122.581333l-4.693333 0.085334H234.666667a122.666667 122.666667 0 0 1-122.581334-117.973334L112 832V192a122.666667 122.666667 0 0 1 117.973333-122.581333L234.666667 69.333333h448zM805.333333 682.666667a37.333333 37.333333 0 0 1-74.538666 3.072L730.666667 682.666667V192a48 48 0 0 0-44.714667-47.893333L682.666667 144H234.666667a48 48 0 0 0-47.893334 44.714667L186.666667 192v640a48 48 0 0 0 44.714666 47.893333l3.285334 0.106667h597.333333a48 48 0 0 0 47.893333-44.714667L880 832V533.333333a48 48 0 0 0-44.714667-47.893333L832 485.333333h-26.666667V682.666667z" p-id="1917" fill="#1afa29"></path><path d="M565.333333 325.333333a37.333333 37.333333 0 0 1 3.072 74.538667l-3.072 0.128h-213.333333a37.333333 37.333333 0 0 1-3.072-74.538667l3.072-0.128h213.333333zM458.666667 538.666667a37.333333 37.333333 0 0 1 3.072 74.538666l-3.072 0.128h-106.666667a37.333333 37.333333 0 0 1-3.072-74.538666l3.072-0.128h106.666667z" p-id="1918" fill="#1afa29"></path></svg>